# xmcd CD database file
#
# Track frame offsets:
#	150
#	23688
#	49100
#	73387
#	92546
#	114351
#	138550
#	158607
#	184129
#	200913
#	220560
#	238608
#
# Disc length: 3415 seconds
#
# Revision: 0
# Processed by: cddbd v1.5.2PL0 Copyright (c) Steve Scherf et al.
# Submitted via: CDex 1.79
#
DISCID=a60d550c
DTITLE=Sari Schorr - A Force Of Nature
DYEAR=2016
DGENRE=Blues
TTITLE0=Ain't got no money
TTITLE1=Aunt Hazel
TTITLE2=Damn the reason
TTITLE3=Cat and mouse
TTITLE4=Black Betty
TTITLE5=Work no more
TTITLE6=Demolition man
TTITLE7=Oklahoma
TTITLE8=Letting go
TTITLE9=Kiss me
TTITLE10=Stop! In the name of love
TTITLE11=Ordinary live
EXTD=YEAR: 2016
EXTT0=
EXTT1=
EXTT2=
EXTT3=
EXTT4=
EXTT5=
EXTT6=
EXTT7=
EXTT8=
EXTT9=
EXTT10=
EXTT11=
PLAYORDER=
